<svg version="1.1" viewBox="0.0 0.0 62.3989501312336 62.3989501312336" fill="none" stroke="none" stroke-linecap="square" stroke-miterlimit="10" xmlns:xlink="http://www.w3.org/1999/xlink" xmlns="http://www.w3.org/2000/svg"><clipPath id="p.0"><path d="m0 0l62.39895 0l0 62.39895l-62.39895 0l0 -62.39895z" clip-rule="nonzero"/></clipPath><g clip-path="url(#p.0)"><path fill="#000000" fill-opacity="0.0" d="m0 0l62.39895 0l0 62.39895l-62.39895 0z" fill-rule="evenodd"/><path fill="#ffffff" d="m11.058294 23.606972l12.085802 0l0 36.573357l-12.085802 0z" fill-rule="evenodd"/><path stroke="#ffffff" stroke-width="4.0" stroke-linejoin="round" stroke-linecap="butt" d="m11.058294 23.606972l12.085802 0l0 36.573357l-12.085802 0z" fill-rule="evenodd"/><path fill="#ffffff" d="m51.339893 60.407066l-12.0858 0l0 -37.027557l12.0858 0z" fill-rule="evenodd"/><path stroke="#ffffff" stroke-width="4.0" stroke-linejoin="round" stroke-linecap="butt" d="m51.339893 60.407066l-12.0858 0l0 -37.027557l12.0858 0z" fill-rule="evenodd"/><path fill="#ffffff" d="m51.339893 23.377314l0 13.94211l-40.2816 0l0 -13.94211z" fill-rule="evenodd"/><path stroke="#ffffff" stroke-width="4.0" stroke-linejoin="round" stroke-linecap="butt" d="m51.339893 23.377314l0 13.94211l-40.2816 0l0 -13.94211z" fill-rule="evenodd"/><path fill="#ffffff" d="m18.611095 48.26038l0 0c0 -5.0572624 2.4046059 -9.7294655 6.3062477 -12.253174c3.90164 -2.5237122 8.706173 -2.5146217 12.600224 0.023841858c3.8940506 2.5384636 6.284626 7.219742 6.269455 12.276978l-4.149227 -0.015705109c0.009647369 -3.5729866 -1.5932465 -6.880062 -4.203762 -8.673157c-2.6105156 -1.7930946 -5.831173 -1.7991867 -8.44652 -0.015983582c-2.615345 1.7832069 -4.2271614 5.084194 -4.2271614 8.6572z" fill-rule="evenodd"/><path stroke="#ffffff" stroke-width="4.0" stroke-linejoin="round" stroke-linecap="butt" d="m18.611095 48.26038l0 0c0 -5.0572624 2.4046059 -9.7294655 6.3062477 -12.253174c3.90164 -2.5237122 8.706173 -2.5146217 12.600224 0.023841858c3.8940506 2.5384636 6.284626 7.219742 6.269455 12.276978l-4.149227 -0.015705109c0.009647369 -3.5729866 -1.5932465 -6.880062 -4.203762 -8.673157c-2.6105156 -1.7930946 -5.831173 -1.7991867 -8.44652 -0.015983582c-2.615345 1.7832069 -4.2271614 5.084194 -4.2271614 8.6572z" fill-rule="evenodd"/><path fill="#ffffff" d="m2.164096 29.31763l29.034998 -26.969229l29.034998 26.969229z" fill-rule="evenodd"/><path stroke="#ffffff" stroke-width="4.0" stroke-linejoin="round" stroke-linecap="butt" d="m2.164096 29.31763l29.034998 -26.969229l29.034998 26.969229z" fill-rule="evenodd"/></g></svg>