<svg version="1.1" viewBox="0.0 0.0 57.6010498687664 57.6010498687664" fill="none" stroke="none" stroke-linecap="square" stroke-miterlimit="10" xmlns:xlink="http://www.w3.org/1999/xlink" xmlns="http://www.w3.org/2000/svg"><clipPath id="p.0"><path d="m0 0l57.60105 0l0 57.60105l-57.60105 0l0 -57.60105z" clip-rule="nonzero"/></clipPath><g clip-path="url(#p.0)"><path fill="#000000" fill-opacity="0.0" d="m0 0l57.60105 0l0 57.60105l-57.60105 0z" fill-rule="evenodd"/><path fill="#ffffff" d="m0.4855643 28.800526l0 0c0 -15.637921 12.67704 -28.31496 28.31496 -28.31496l0 0c7.509594 0 14.7116165 2.9831748 20.021702 8.29326c5.3100815 5.3100853 8.293259 12.512106 8.293259 20.021702l0 0c0 15.63792 -12.67704 28.31496 -28.31496 28.31496l0 0c-15.637921 0 -28.31496 -12.67704 -28.31496 -28.31496zm3.9629622 0l0 0c0 13.449238 10.902761 24.351997 24.352 24.351997c13.449238 0 24.351997 -10.90276 24.351997 -24.351997l0 0c0 -13.449238 -10.90276 -24.352 -24.351997 -24.352l0 0c-13.449238 0 -24.352 10.902761 -24.352 24.352z" fill-rule="evenodd"/><path stroke="#ffffff" stroke-width="1.0" stroke-linejoin="round" stroke-linecap="butt" d="m0.4855643 28.800526l0 0c0 -15.637921 12.67704 -28.31496 28.31496 -28.31496l0 0c7.509594 0 14.7116165 2.9831748 20.021702 8.29326c5.3100815 5.3100853 8.293259 12.512106 8.293259 20.021702l0 0c0 15.63792 -12.67704 28.31496 -28.31496 28.31496l0 0c-15.637921 0 -28.31496 -12.67704 -28.31496 -28.31496zm3.9629622 0l0 0c0 13.449238 10.902761 24.351997 24.352 24.351997c13.449238 0 24.351997 -10.90276 24.351997 -24.351997l0 0c0 -13.449238 -10.90276 -24.352 -24.351997 -24.352l0 0c-13.449238 0 -24.352 10.902761 -24.352 24.352z" fill-rule="evenodd"/><path fill="#ffffff" d="m35.759842 15.131233l0 0c0 -1.0088978 0.8178749 -1.8267717 1.8267708 -1.8267717l0 0l0 0c0.48449326 0 0.94913864 0.19246292 1.2917252 0.53504944c0.34258652 0.34258652 0.53504944 0.80723286 0.53504944 1.2917223l0 27.338585c0 1.0088959 -0.8178749 1.8267708 -1.8267746 1.8267708l0 0l0 0c-1.0088959 0 -1.8267708 -0.8178749 -1.8267708 -1.8267708z" fill-rule="evenodd"/><path fill="#ffffff" d="m37.586613 13.3044615l0 0c1.0088997 0 1.8267746 0.81787395 1.8267746 1.8267717l0 0l0 0c0 0.4844904 -0.19246292 0.94913673 -0.53504944 1.2917233c-0.34258652 0.34258652 -0.8072319 0.53504944 -1.2917252 0.53504944l-15.90551 0c-1.0088978 0 -1.8267727 -0.8178749 -1.8267727 -1.8267727l0 0l0 0c0 -1.0088978 0.8178749 -1.8267717 1.8267727 -1.8267717z" fill-rule="evenodd"/><path fill="#ffffff" d="m37.586613 40.643044l0 0c1.0088997 0 1.8267746 0.8178749 1.8267746 1.8267746l0 0l0 0c0 0.48448944 -0.19246292 0.9491348 -0.53504944 1.2917213c-0.34258652 0.34258652 -0.8072319 0.53504944 -1.2917252 0.53504944l-15.90551 0c-1.0088978 0 -1.8267727 -0.8178749 -1.8267727 -1.8267708l0 0l0 0c0 -1.0088997 0.8178749 -1.8267746 1.8267727 -1.8267746z" fill-rule="evenodd"/><path fill="#ffffff" d="m19.85433 15.131233l0 0c0 -1.0088978 0.8178749 -1.8267717 1.8267727 -1.8267717l0 0l0 0c0.48448944 0 0.94913673 0.19246292 1.2917213 0.53504944c0.34258652 0.34258652 0.53504944 0.80723286 0.53504944 1.2917223l0 7.7165356c0 1.0088978 -0.817873 1.8267727 -1.8267708 1.8267727l0 0l0 0c-1.0088978 0 -1.8267727 -0.8178749 -1.8267727 -1.8267727z" fill-rule="evenodd"/><path fill="#ffffff" d="m19.85433 34.75328l0 0c0 -1.0088997 0.8178749 -1.8267708 1.8267727 -1.8267708l0 0l0 0c0.48448944 0 0.94913673 0.19246292 1.2917213 0.53504944c0.34258652 0.34258652 0.53504944 0.8072319 0.53504944 1.2917213l0 7.7165375c0 1.0088959 -0.817873 1.8267708 -1.8267708 1.8267708l0 0l0 0c-1.0088978 0 -1.8267727 -0.8178749 -1.8267727 -1.8267708z" fill-rule="evenodd"/><path fill="#ffffff" d="m18.833334 30.391077l0 0c-0.87843704 0 -1.5905514 -0.71211433 -1.5905514 -1.5905514l0 0l0 0c0 -0.42184067 0.16757584 -0.8264046 0.46586037 -1.124691c0.29828644 -0.29828453 0.70285034 -0.46586037 1.124691 -0.46586037l9.952755 0c0.87843704 0 1.5905514 0.71211433 1.5905514 1.5905514l0 0l0 0c0 0.87843704 -0.71211433 1.5905514 -1.5905514 1.5905514z" fill-rule="evenodd"/><path fill="#ffffff" d="m18.270588 31.63517l-3.9055119 -2.8346443l3.9055119 -2.8346462z" fill-rule="evenodd"/><path stroke="#ffffff" stroke-width="1.0" stroke-linejoin="round" stroke-linecap="butt" d="m18.270588 31.63517l-3.9055119 -2.8346443l3.9055119 -2.8346462z" fill-rule="evenodd"/></g></svg>