<svg version="1.1" viewBox="0.0 0.0 57.6010498687664 57.6010498687664" fill="none" stroke="none" stroke-linecap="square" stroke-miterlimit="10" xmlns:xlink="http://www.w3.org/1999/xlink" xmlns="http://www.w3.org/2000/svg"><clipPath id="p.0"><path d="m0 0l57.60105 0l0 57.60105l-57.60105 0l0 -57.60105z" clip-rule="nonzero"/></clipPath><g clip-path="url(#p.0)"><path fill="#000000" d="m0 0l57.60105 0l0 57.60105l-57.60105 0z" fill-rule="evenodd"/><path fill="#434343" d="m21.320816 18.998314l0 0c0 -4.01754 3.3428211 -7.2743998 7.4664 -7.2743998l0 0c1.9802132 0 3.879322 0.76640797 5.279541 2.1306229c1.4002228 1.364214 2.1868591 3.2144861 2.1868591 5.143777l0 0c0 4.01754 -3.3428192 7.2744007 -7.4664 7.2744007l0 0c-4.123579 0 -7.4664 -3.2568607 -7.4664 -7.2744007z" fill-rule="evenodd"/><path fill="#434343" d="m26.551739 27.96005l4.470955 0l0 0c2.3774338 0 4.6574936 0.9444313 6.3385925 2.6255302c1.6810989 1.6811008 2.6255302 3.9611607 2.6255302 6.3385906l0 7.0929527c0 1.0334206 -0.8377533 1.87117 -1.87117 1.87117l-18.656858 0c-1.0334187 0 -1.871172 -0.8377495 -1.871172 -1.87117l0 -7.0929527l0 0c0 -4.9507465 4.0133743 -8.964121 8.964123 -8.964121z" fill-rule="evenodd"/><path fill="#434343" d="m0.4855643 28.800526l0 0c0 -15.637921 12.67704 -28.31496 28.31496 -28.31496l0 0c7.509594 0 14.7116165 2.9831748 20.021702 8.29326c5.3100815 5.3100853 8.293259 12.512106 8.293259 20.021702l0 0c0 15.63792 -12.67704 28.31496 -28.31496 28.31496l0 0c-15.637921 0 -28.31496 -12.67704 -28.31496 -28.31496zm3.1599498 0l0 0c0 13.892727 11.262281 25.15501 25.155012 25.15501c13.892727 0 25.15501 -11.262283 25.15501 -25.15501l0 0c0 -13.89273 -11.262283 -25.155012 -25.15501 -25.155012l0 0c-13.89273 0 -25.155012 11.262281 -25.155012 25.155012z" fill-rule="evenodd"/><path stroke="#434343" stroke-width="1.0" stroke-linejoin="round" stroke-linecap="butt" d="m0.4855643 28.800526l0 0c0 -15.637921 12.67704 -28.31496 28.31496 -28.31496l0 0c7.509594 0 14.7116165 2.9831748 20.021702 8.29326c5.3100815 5.3100853 8.293259 12.512106 8.293259 20.021702l0 0c0 15.63792 -12.67704 28.31496 -28.31496 28.31496l0 0c-15.637921 0 -28.31496 -12.67704 -28.31496 -28.31496zm3.1599498 0l0 0c0 13.892727 11.262281 25.15501 25.155012 25.15501c13.892727 0 25.15501 -11.262283 25.15501 -25.15501l0 0c0 -13.89273 -11.262283 -25.155012 -25.15501 -25.155012l0 0c-13.89273 0 -25.155012 11.262281 -25.155012 25.155012z" fill-rule="evenodd"/></g></svg>