<svg version="1.1" viewBox="0.0 0.0 52.800524934383205 62.3989501312336" fill="none" stroke="none" stroke-linecap="square" stroke-miterlimit="10" xmlns:xlink="http://www.w3.org/1999/xlink" xmlns="http://www.w3.org/2000/svg"><clipPath id="p.0"><path d="m0 0l52.800526 0l0 62.39895l-52.800526 0l0 -62.39895z" clip-rule="nonzero"/></clipPath><g clip-path="url(#p.0)"><path fill="#000000" fill-opacity="0.0" d="m0 0l52.800526 0l0 62.39895l-52.800526 0z" fill-rule="evenodd"/><path fill="#000000" d="m45.751125 22.39005l-4.0056343 35.58667l-30.686462 0l-4.0056357 -35.58667z" fill-rule="evenodd"/><path stroke="#85989a" stroke-width="8.0" stroke-linejoin="round" stroke-linecap="butt" d="m45.751125 22.39005l-4.0056343 35.58667l-30.686462 0l-4.0056357 -35.58667z" fill-rule="evenodd"/><path fill="#000000" d="m5.6096883 10.653893l41.58514 0c0.32240295 0 0.6315994 0.12807369 0.85957336 0.35604668c0.22797394 0.22797298 0.35604477 0.53716946 0.35604477 0.85957146l0 7.753087c0 2.040863E-4 -1.6403198E-4 3.681183E-4 -3.6621094E-4 3.681183E-4l-44.01601 -3.681183E-4l0 0c-2.0265579E-4 0 -3.6668777E-4 -1.6403198E-4 -3.6668777E-4 -3.6621094E-4l3.6668777E-4 -7.752721l0 0c0 -0.6713667 0.54425097 -1.2156181 1.2156181 -1.2156181z" fill-rule="evenodd"/><path stroke="#85989a" stroke-width="8.0" stroke-linejoin="round" stroke-linecap="butt" d="m5.6096883 10.653893l41.58514 0c0.32240295 0 0.6315994 0.12807369 0.85957336 0.35604668c0.22797394 0.22797298 0.35604477 0.53716946 0.35604477 0.85957146l0 7.753087c0 2.040863E-4 -1.6403198E-4 3.681183E-4 -3.6621094E-4 3.681183E-4l-44.01601 -3.681183E-4l0 0c-2.0265579E-4 0 -3.6668777E-4 -1.6403198E-4 -3.6668777E-4 -3.6621094E-4l3.6668777E-4 -7.752721l0 0c0 -0.6713667 0.54425097 -1.2156181 1.2156181 -1.2156181z" fill-rule="evenodd"/><path fill="#85989a" d="m17.819065 10.653893l2.170227 -6.231269l12.825935 0l2.170227 6.231269z" fill-rule="evenodd"/><path stroke="#85989a" stroke-width="8.0" stroke-linejoin="round" stroke-linecap="butt" d="m17.819065 10.653893l2.170227 -6.231269l12.825935 0l2.170227 6.231269z" fill-rule="evenodd"/><path fill="#ffffff" d="m45.751125 22.39005l-4.0056343 35.58667l-30.686462 0l-4.0056357 -35.58667z" fill-rule="evenodd"/><path fill="#ffffff" d="m5.6096883 10.653893l41.58514 0c0.32240295 0 0.6315994 0.12807369 0.85957336 0.35604668c0.22797394 0.22797298 0.35604477 0.53716946 0.35604477 0.85957146l0 7.753087c0 2.040863E-4 -1.6403198E-4 3.681183E-4 -3.6621094E-4 3.681183E-4l-44.01601 -3.681183E-4l0 0c-2.0265579E-4 0 -3.6668777E-4 -1.6403198E-4 -3.6668777E-4 -3.6621094E-4l3.6668777E-4 -7.752721l0 0c0 -0.6713667 0.54425097 -1.2156181 1.2156181 -1.2156181z" fill-rule="evenodd"/><path fill="#85989a" d="m18.167528 12.094649l2.6720123 -7.6720247l11.125437 0l2.6720123 7.6720247z" fill-rule="evenodd"/><path stroke="#ffffff" stroke-width="3.0" stroke-linejoin="round" stroke-linecap="butt" d="m18.167528 12.094649l2.6720123 -7.6720247l11.125437 0l2.6720123 7.6720247z" fill-rule="evenodd"/><path fill="#85989a" d="m24.568243 29.554863l0 0c0 -1.0128975 0.8211174 -1.8340149 1.8340168 -1.8340149l0 0l0 0c0.48641014 0 0.95289993 0.19322586 1.2968445 0.5371704c0.34394455 0.34394455 0.5371704 0.81043434 0.5371704 1.2968445l0 21.257046c0 1.0129013 -0.8211174 1.8340149 -1.8340149 1.8340149l0 0l0 0c-1.0128994 0 -1.8340168 -0.8211136 -1.8340168 -1.8340149z" fill-rule="evenodd"/><path fill="#85989a" d="m33.21257 29.554863l0 0c0 -1.0128975 0.8211174 -1.8340149 1.8340149 -1.8340149l0 0l0 0c0.48641205 0 0.95289993 0.19322586 1.2968483 0.5371704c0.34394455 0.34394455 0.5371704 0.81043434 0.5371704 1.2968445l0 21.257046c0 1.0129013 -0.8211174 1.8340149 -1.8340187 1.8340149l0 0l0 0c-1.0128975 0 -1.8340149 -0.8211136 -1.8340149 -1.8340149z" fill-rule="evenodd"/><path fill="#85989a" d="m15.923916 29.554863l0 0c0 -1.0128975 0.8211174 -1.8340149 1.8340149 -1.8340149l0 0l0 0c0.48641205 0 0.95290184 0.19322586 1.2968464 0.5371704c0.34394455 0.34394455 0.5371704 0.81043434 0.5371704 1.2968445l0 21.257046c0 1.0129013 -0.8211174 1.8340149 -1.8340168 1.8340149l0 0l0 0c-1.0128975 0 -1.8340149 -0.8211136 -1.8340149 -1.8340149z" fill-rule="evenodd"/></g></svg>