<svg version="1.1" viewBox="0.0 0.0 48.0 62.3989501312336" fill="none" stroke="none" stroke-linecap="square" stroke-miterlimit="10" xmlns:xlink="http://www.w3.org/1999/xlink" xmlns="http://www.w3.org/2000/svg"><clipPath id="p.0"><path d="m0 0l48.0 0l0 62.39895l-48.0 0l0 -62.39895z" clip-rule="nonzero"/></clipPath><g clip-path="url(#p.0)"><path fill="#000000" fill-opacity="0.0" d="m0 0l48.0 0l0 62.39895l-48.0 0z" fill-rule="evenodd"/><path fill="#000000" d="m42.319878 22.38958l-4.005638 35.58667l-28.629625 0l-4.0056357 -35.58667z" fill-rule="evenodd"/><path stroke="#85989a" stroke-width="8.0" stroke-linejoin="round" stroke-linecap="butt" d="m42.319878 22.38958l-4.005638 35.58667l-28.629625 0l-4.0056357 -35.58667z" fill-rule="evenodd"/><path fill="#000000" d="m4.3766203 10.653421l39.245613 0c0.32240295 0 0.6315994 0.12807369 0.85957336 0.35604668c0.22797012 0.22797203 0.35604477 0.53716946 0.35604477 0.85957146l0 7.753088c0 1.9073486E-4 -1.5640259E-4 3.4713745E-4 -3.4713745E-4 3.4713745E-4l-41.676502 -3.4713745E-4l0 0c-1.9192696E-4 0 -3.4737587E-4 -1.5640259E-4 -3.4737587E-4 -3.4713745E-4l3.4737587E-4 -7.752741l0 0c0 -0.6713667 0.5442507 -1.2156181 1.2156181 -1.2156181z" fill-rule="evenodd"/><path stroke="#85989a" stroke-width="8.0" stroke-linejoin="round" stroke-linecap="butt" d="m4.3766203 10.653421l39.245613 0c0.32240295 0 0.6315994 0.12807369 0.85957336 0.35604668c0.22797012 0.22797203 0.35604477 0.53716946 0.35604477 0.85957146l0 7.753088c0 1.9073486E-4 -1.5640259E-4 3.4713745E-4 -3.4713745E-4 3.4713745E-4l-41.676502 -3.4713745E-4l0 0c-1.9192696E-4 0 -3.4737587E-4 -1.5640259E-4 -3.4737587E-4 -3.4713745E-4l3.4737587E-4 -7.752741l0 0c0 -0.6713667 0.5442507 -1.2156181 1.2156181 -1.2156181z" fill-rule="evenodd"/><path fill="#85989a" d="m15.872441 10.653421l2.170226 -6.2312694l11.913519 0l2.1702251 6.2312694z" fill-rule="evenodd"/><path stroke="#85989a" stroke-width="8.0" stroke-linejoin="round" stroke-linecap="butt" d="m15.872441 10.653421l2.170226 -6.2312694l11.913519 0l2.1702251 6.2312694z" fill-rule="evenodd"/><path fill="#ffffff" d="m42.319878 22.38958l-4.005638 35.58667l-28.629625 0l-4.0056357 -35.58667z" fill-rule="evenodd"/><path fill="#ffffff" d="m4.3766203 10.653421l39.245613 0c0.32240295 0 0.6315994 0.12807369 0.85957336 0.35604668c0.22797012 0.22797203 0.35604477 0.53716946 0.35604477 0.85957146l0 7.753088c0 1.9073486E-4 -1.5640259E-4 3.4713745E-4 -3.4713745E-4 3.4713745E-4l-41.676502 -3.4713745E-4l0 0c-1.9192696E-4 0 -3.4737587E-4 -1.5640259E-4 -3.4737587E-4 -3.4713745E-4l3.4737587E-4 -7.752741l0 0c0 -0.6713667 0.5442507 -1.2156181 1.2156181 -1.2156181z" fill-rule="evenodd"/><path fill="#85989a" d="m16.202383 12.094177l2.6720123 -7.672025l10.250063 0l2.6720123 7.672025z" fill-rule="evenodd"/><path stroke="#ffffff" stroke-width="3.0" stroke-linejoin="round" stroke-linecap="butt" d="m16.202383 12.094177l2.6720123 -7.672025l10.250063 0l2.6720123 7.672025z" fill-rule="evenodd"/><path fill="#85989a" d="m22.262892 29.456911l0 0c0 -0.9590626 0.77747345 -1.736536 1.736536 -1.736536l0 0l0 0c0.46055794 0 0.9022522 0.1829567 1.2279148 0.5086193c0.32566452 0.32566452 0.5086193 0.7673588 0.5086193 1.2279167l0 21.452005c0 0.9590645 -0.77747345 1.7365379 -1.7365341 1.7365379l0 0l0 0c-0.9590626 0 -1.736536 -0.77747345 -1.736536 -1.7365379z" fill-rule="evenodd"/><path fill="#85989a" d="m30.447762 29.456911l0 0c0 -0.9590626 0.77747345 -1.736536 1.7365379 -1.736536l0 0l0 0c0.46055603 0 0.9022522 0.1829567 1.2279129 0.5086193c0.32566452 0.32566452 0.5086212 0.7673588 0.5086212 1.2279167l0 21.452005c0 0.9590645 -0.77747345 1.7365379 -1.7365341 1.7365379l0 0l0 0c-0.9590645 0 -1.7365379 -0.77747345 -1.7365379 -1.7365379z" fill-rule="evenodd"/><path fill="#85989a" d="m14.078021 29.456911l0 0c0 -0.9590626 0.77747345 -1.736536 1.736536 -1.736536l0 0l0 0c0.46055698 0 0.90225315 0.1829567 1.2279158 0.5086193c0.32566452 0.32566452 0.5086193 0.7673588 0.5086193 1.2279167l0 21.452005c0 0.9590645 -0.77747345 1.7365379 -1.7365351 1.7365379l0 0l0 0c-0.9590626 0 -1.736536 -0.77747345 -1.736536 -1.7365379z" fill-rule="evenodd"/></g></svg>