<svg version="1.1" viewBox="0.0 0.0 57.6010498687664 57.6010498687664" fill="none" stroke="none" stroke-linecap="square" stroke-miterlimit="10" xmlns:xlink="http://www.w3.org/1999/xlink" xmlns="http://www.w3.org/2000/svg"><clipPath id="p.0"><path d="m0 0l57.60105 0l0 57.60105l-57.60105 0l0 -57.60105z" clip-rule="nonzero"/></clipPath><g clip-path="url(#p.0)"><path fill="#000000" fill-opacity="0.0" d="m0 0l57.60105 0l0 57.60105l-57.60105 0z" fill-rule="evenodd"/><path fill="#00ff00" d="m4.8006506 25.770252l0 0c0 -2.1514816 1.7441216 -3.8956032 3.895605 -3.8956032l19.156136 0c1.0331783 0 2.0240421 0.4104271 2.7546082 1.140995c0.73056793 0.73056793 1.1409969 1.7214298 1.1409969 2.7546082l0 0l0 0c0 2.1514835 -1.7441216 3.895605 -3.895605 3.895605l-19.156136 0c-2.1514835 0 -3.895605 -1.7441216 -3.895605 -3.895605z" fill-rule="evenodd"/><path stroke="#85989a" stroke-width="8.0" stroke-linejoin="round" stroke-linecap="butt" d="m4.8006506 25.770252l0 0c0 -2.1514816 1.7441216 -3.8956032 3.895605 -3.8956032l19.156136 0c1.0331783 0 2.0240421 0.4104271 2.7546082 1.140995c0.73056793 0.73056793 1.1409969 1.7214298 1.1409969 2.7546082l0 0l0 0c0 2.1514835 -1.7441216 3.895605 -3.895605 3.895605l-19.156136 0c-2.1514835 0 -3.895605 -1.7441216 -3.895605 -3.895605z" fill-rule="evenodd"/><path fill="#00ff00" d="m8.219083 47.775154l0 0c0 -2.242859 1.8181963 -4.061054 4.061055 -4.061054l14.516157 0l0 0c1.0770588 0 2.1100044 0.42786026 2.8715992 1.1894569c0.7615967 0.76159286 1.1894569 1.7945404 1.1894569 2.8715973l0 0l0 0c0 2.242859 -1.8181973 4.061058 -4.061056 4.061058l-14.516157 0c-2.242859 0 -4.061055 -1.8181992 -4.061055 -4.061058z" fill-rule="evenodd"/><path stroke="#85989a" stroke-width="8.0" stroke-linejoin="round" stroke-linecap="butt" d="m8.219083 47.775154l0 0c0 -2.242859 1.8181963 -4.061054 4.061055 -4.061054l14.516157 0l0 0c1.0770588 0 2.1100044 0.42786026 2.8715992 1.1894569c0.7615967 0.76159286 1.1894569 1.7945404 1.1894569 2.8715973l0 0l0 0c0 2.242859 -1.8181973 4.061058 -4.061056 4.061058l-14.516157 0c-2.242859 0 -4.061055 -1.8181992 -4.061055 -4.061058z" fill-rule="evenodd"/><path fill="#00ff00" d="m6.9189825 40.329887l0 0c0 -2.1514816 1.7441216 -3.8956032 3.895605 -3.8956032l14.847058 0l0 0c1.0331783 0 2.0240402 0.4104271 2.7546082 1.140995c0.73056793 0.73056793 1.1409969 1.7214279 1.1409969 2.7546082l0 0l0 0c0 2.1514816 -1.7441216 3.8956032 -3.895605 3.8956032l-14.847058 0c-2.1514835 0 -3.895605 -1.7441216 -3.895605 -3.8956032z" fill-rule="evenodd"/><path stroke="#85989a" stroke-width="8.0" stroke-linejoin="round" stroke-linecap="butt" d="m6.9189825 40.329887l0 0c0 -2.1514816 1.7441216 -3.8956032 3.895605 -3.8956032l14.847058 0l0 0c1.0331783 0 2.0240402 0.4104271 2.7546082 1.140995c0.73056793 0.73056793 1.1409969 1.7214279 1.1409969 2.7546082l0 0l0 0c0 2.1514816 -1.7441216 3.8956032 -3.895605 3.8956032l-14.847058 0c-2.1514835 0 -3.895605 -1.7441216 -3.895605 -3.8956032z" fill-rule="evenodd"/><path fill="#00ff00" d="m30.453878 30.959768c-1.5695 -2.511837 -4.654724 -6.6856995 -5.4540024 -10.648989c-0.79927826 -3.9632893 -0.50003624 -10.609298 0.6583328 -13.130745c1.1583672 -2.5214477 5.0519753 -2.7621026 6.291876 -1.9979391c1.2399025 0.7641635 0.6492233 4.5820565 1.1475258 6.5829206c0.49830246 2.000863 0.6930275 2.6484594 1.842289 5.4222603c1.1492577 2.7738018 5.1404457 8.188124 5.053276 11.220545c-0.08716965 3.032421 -3.9864159 6.5486603 -5.5763016 6.973984c-1.5898819 0.4253273 -2.3934975 -1.9101982 -3.9629955 -4.422037z" fill-rule="evenodd"/><path stroke="#85989a" stroke-width="8.0" stroke-linejoin="round" stroke-linecap="butt" d="m30.453878 30.959768c-1.5695 -2.511837 -4.654724 -6.6856995 -5.4540024 -10.648989c-0.79927826 -3.9632893 -0.50003624 -10.609298 0.6583328 -13.130745c1.1583672 -2.5214477 5.0519753 -2.7621026 6.291876 -1.9979391c1.2399025 0.7641635 0.6492233 4.5820565 1.1475258 6.5829206c0.49830246 2.000863 0.6930275 2.6484594 1.842289 5.4222603c1.1492577 2.7738018 5.1404457 8.188124 5.053276 11.220545c-0.08716965 3.032421 -3.9864159 6.5486603 -5.5763016 6.973984c-1.5898819 0.4253273 -2.3934975 -1.9101982 -3.9629955 -4.422037z" fill-rule="evenodd"/><path fill="#00ff00" d="m5.7704134 33.05007l0 0c0 -2.1514835 1.7441216 -3.895607 3.895605 -3.895607l16.689346 0l0 0c1.0331783 0 2.0240402 0.410429 2.7546082 1.1409969c0.73056793 0.73056793 1.140995 1.7214298 1.140995 2.75461l0 0l0 0c0 2.1514816 -1.7441216 3.8956032 -3.8956032 3.8956032l-16.689346 0c-2.1514835 0 -3.895605 -1.7441216 -3.895605 -3.8956032z" fill-rule="evenodd"/><path stroke="#85989a" stroke-width="8.0" stroke-linejoin="round" stroke-linecap="butt" d="m5.7704134 33.05007l0 0c0 -2.1514835 1.7441216 -3.895607 3.895605 -3.895607l16.689346 0l0 0c1.0331783 0 2.0240402 0.410429 2.7546082 1.1409969c0.73056793 0.73056793 1.140995 1.7214298 1.140995 2.75461l0 0l0 0c0 2.1514816 -1.7441216 3.8956032 -3.8956032 3.8956032l-16.689346 0c-2.1514835 0 -3.895605 -1.7441216 -3.895605 -3.8956032z" fill-rule="evenodd"/><path fill="#00ff00" d="m22.596416 48.905045l0 0c-0.6639404 -2.1514816 0.55247116 -4.3984795 2.7169304 -5.0188103l9.585457 -2.747181l0 0c1.0394096 -0.2978897 2.1629066 -0.17315674 3.123333 0.34677124c0.9604225 0.51992416 1.6791039 1.3924484 1.9979401 2.4256287l0 0l0 0c0.6639404 2.1514816 -0.55247116 4.3984795 -2.7169304 5.0188103l-9.585459 2.7471771c-2.1644611 0.6203308 -4.4573326 -0.62091064 -5.121271 -2.772396z" fill-rule="evenodd"/><path stroke="#85989a" stroke-width="8.0" stroke-linejoin="round" stroke-linecap="butt" d="m22.596416 48.905045l0 0c-0.6639404 -2.1514816 0.55247116 -4.3984795 2.7169304 -5.0188103l9.585457 -2.747181l0 0c1.0394096 -0.2978897 2.1629066 -0.17315674 3.123333 0.34677124c0.9604225 0.51992416 1.6791039 1.3924484 1.9979401 2.4256287l0 0l0 0c0.6639404 2.1514816 -0.55247116 4.3984795 -2.7169304 5.0188103l-9.585459 2.7471771c-2.1644611 0.6203308 -4.4573326 -0.62091064 -5.121271 -2.772396z" fill-rule="evenodd"/><path fill="#00ff00" d="m24.75095 29.618498l0 0c0 -4.2768097 3.467039 -7.743849 7.743847 -7.743849l0 0l0 0c2.0537987 0 4.0234756 0.8158665 5.475731 2.2681198c1.4522514 1.4522533 2.2681198 3.4219322 2.2681198 5.475729l0 9.420107c0 4.2768097 -3.467041 7.743847 -7.7438507 7.743847l0 0l0 0c-4.276808 0 -7.743847 -3.4670372 -7.743847 -7.743847z" fill-rule="evenodd"/><path stroke="#85989a" stroke-width="8.0" stroke-linejoin="round" stroke-linecap="butt" d="m24.75095 29.618498l0 0c0 -4.2768097 3.467039 -7.743849 7.743847 -7.743849l0 0l0 0c2.0537987 0 4.0234756 0.8158665 5.475731 2.2681198c1.4522514 1.4522533 2.2681198 3.4219322 2.2681198 5.475729l0 9.420107c0 4.2768097 -3.467041 7.743847 -7.7438507 7.743847l0 0l0 0c-4.276808 0 -7.743847 -3.4670372 -7.743847 -7.743847z" fill-rule="evenodd"/><path fill="#00ff00" d="m24.75095 36.644897l0 0c0 -1.1214523 0.90911674 -2.0305672 2.0305672 -2.0305672l11.426563 0c0.5385399 0 1.0550232 0.21393204 1.4358253 0.594738c0.38080597 0.38080597 0.5947418 0.8972893 0.5947418 1.4358292l0 8.122028c0 1.1214523 -0.90911865 2.0305672 -2.0305672 2.0305672l-11.426563 0l0 0c-1.1214504 0 -2.0305672 -0.90911484 -2.0305672 -2.0305672z" fill-rule="evenodd"/><path stroke="#85989a" stroke-width="8.0" stroke-linejoin="round" stroke-linecap="butt" d="m24.75095 36.644897l0 0c0 -1.1214523 0.90911674 -2.0305672 2.0305672 -2.0305672l11.426563 0c0.5385399 0 1.0550232 0.21393204 1.4358253 0.594738c0.38080597 0.38080597 0.5947418 0.8972893 0.5947418 1.4358292l0 8.122028c0 1.1214523 -0.90911865 2.0305672 -2.0305672 2.0305672l-11.426563 0l0 0c-1.1214504 0 -2.0305672 -0.90911484 -2.0305672 -2.0305672z" fill-rule="evenodd"/><path fill="#00ff00" d="m52.801586 28.064978l0 18.498404c0 0.4789505 -0.19026566 0.9382858 -0.5289345 1.2769585c-0.33867264 0.33866882 -0.79800797 0.5289345 -1.2769623 0.5289345l-9.029247 0c-1.02996826E-4 0 -1.8692017E-4 -8.392334E-5 -1.8692017E-4 -1.8692017E-4l1.8692017E-4 -22.110004l0 0c0 -1.0108948E-4 8.010864E-5 -1.8310547E-4 1.8310547E-4 -1.8310547E-4l9.029064 1.8310547E-4l0 0c0.99736786 0 1.8058968 0.808527 1.8058968 1.8058949z" fill-rule="evenodd"/><path stroke="#85989a" stroke-width="8.0" stroke-linejoin="round" stroke-linecap="butt" d="m52.801586 28.064978l0 18.498404c0 0.4789505 -0.19026566 0.9382858 -0.5289345 1.2769585c-0.33867264 0.33866882 -0.79800797 0.5289345 -1.2769623 0.5289345l-9.029247 0c-1.02996826E-4 0 -1.8692017E-4 -8.392334E-5 -1.8692017E-4 -1.8692017E-4l1.8692017E-4 -22.110004l0 0c0 -1.0108948E-4 8.010864E-5 -1.8310547E-4 1.8310547E-4 -1.8310547E-4l9.029064 1.8310547E-4l0 0c0.99736786 0 1.8058968 0.808527 1.8058968 1.8058949z" fill-rule="evenodd"/><path fill="#000000" d="m4.8006506 25.770252l0 0c0 -2.1514816 1.7441216 -3.8956032 3.895605 -3.8956032l19.156136 0c1.0331783 0 2.0240421 0.4104271 2.7546082 1.140995c0.73056793 0.73056793 1.1409969 1.7214298 1.1409969 2.7546082l0 0l0 0c0 2.1514835 -1.7441216 3.895605 -3.895605 3.895605l-19.156136 0c-2.1514835 0 -3.895605 -1.7441216 -3.895605 -3.895605z" fill-rule="evenodd"/><path fill="#000000" d="m8.219083 47.775154l0 0c0 -2.242859 1.8181963 -4.061054 4.061055 -4.061054l14.516157 0l0 0c1.0770588 0 2.1100044 0.42786026 2.8715992 1.1894569c0.7615967 0.76159286 1.1894569 1.7945404 1.1894569 2.8715973l0 0l0 0c0 2.242859 -1.8181973 4.061058 -4.061056 4.061058l-14.516157 0c-2.242859 0 -4.061055 -1.8181992 -4.061055 -4.061058z" fill-rule="evenodd"/><path fill="#000000" d="m6.9189825 40.329887l0 0c0 -2.1514816 1.7441216 -3.8956032 3.895605 -3.8956032l14.847058 0l0 0c1.0331783 0 2.0240402 0.4104271 2.7546082 1.140995c0.73056793 0.73056793 1.1409969 1.7214279 1.1409969 2.7546082l0 0l0 0c0 2.1514816 -1.7441216 3.8956032 -3.895605 3.8956032l-14.847058 0c-2.1514835 0 -3.895605 -1.7441216 -3.895605 -3.8956032z" fill-rule="evenodd"/><path fill="#000000" d="m30.453878 30.959768c-1.5695 -2.511837 -4.654724 -6.6856995 -5.4540024 -10.648989c-0.79927826 -3.9632893 -0.50003624 -10.609298 0.6583328 -13.130745c1.1583672 -2.5214477 5.0519753 -2.7621026 6.291876 -1.9979391c1.2399025 0.7641635 0.6492233 4.5820565 1.1475258 6.5829206c0.49830246 2.000863 0.6930275 2.6484594 1.842289 5.4222603c1.1492577 2.7738018 5.1404457 8.188124 5.053276 11.220545c-0.08716965 3.032421 -3.9864159 6.5486603 -5.5763016 6.973984c-1.5898819 0.4253273 -2.3934975 -1.9101982 -3.9629955 -4.422037z" fill-rule="evenodd"/><path fill="#000000" d="m5.7704134 33.05007l0 0c0 -2.1514835 1.7441216 -3.895607 3.895605 -3.895607l16.689346 0l0 0c1.0331783 0 2.0240402 0.410429 2.7546082 1.1409969c0.73056793 0.73056793 1.140995 1.7214298 1.140995 2.75461l0 0l0 0c0 2.1514816 -1.7441216 3.8956032 -3.8956032 3.8956032l-16.689346 0c-2.1514835 0 -3.895605 -1.7441216 -3.895605 -3.8956032z" fill-rule="evenodd"/><path fill="#000000" d="m22.596416 48.905045l0 0c-0.6639404 -2.1514816 0.55247116 -4.3984795 2.7169304 -5.0188103l9.585457 -2.747181l0 0c1.0394096 -0.2978897 2.1629066 -0.17315674 3.123333 0.34677124c0.9604225 0.51992416 1.6791039 1.3924484 1.9979401 2.4256287l0 0l0 0c0.6639404 2.1514816 -0.55247116 4.3984795 -2.7169304 5.0188103l-9.585459 2.7471771c-2.1644611 0.6203308 -4.4573326 -0.62091064 -5.121271 -2.772396z" fill-rule="evenodd"/><path fill="#000000" d="m24.75095 29.618498l0 0c0 -4.2768097 3.467039 -7.743849 7.743847 -7.743849l0 0l0 0c2.0537987 0 4.0234756 0.8158665 5.475731 2.2681198c1.4522514 1.4522533 2.2681198 3.4219322 2.2681198 5.475729l0 9.420107c0 4.2768097 -3.467041 7.743847 -7.7438507 7.743847l0 0l0 0c-4.276808 0 -7.743847 -3.4670372 -7.743847 -7.743847z" fill-rule="evenodd"/><path fill="#000000" d="m24.75095 36.644897l0 0c0 -1.1214523 0.90911674 -2.0305672 2.0305672 -2.0305672l11.426563 0c0.5385399 0 1.0550232 0.21393204 1.4358253 0.594738c0.38080597 0.38080597 0.5947418 0.8972893 0.5947418 1.4358292l0 8.122028c0 1.1214523 -0.90911865 2.0305672 -2.0305672 2.0305672l-11.426563 0l0 0c-1.1214504 0 -2.0305672 -0.90911484 -2.0305672 -2.0305672z" fill-rule="evenodd"/><path fill="#000000" d="m52.801586 28.064978l0 18.498404c0 0.4789505 -0.19026566 0.9382858 -0.5289345 1.2769585c-0.33867264 0.33866882 -0.79800797 0.5289345 -1.2769623 0.5289345l-9.029247 0c-1.02996826E-4 0 -1.8692017E-4 -8.392334E-5 -1.8692017E-4 -1.8692017E-4l1.8692017E-4 -22.110004l0 0c0 -1.0108948E-4 8.010864E-5 -1.8310547E-4 1.8310547E-4 -1.8310547E-4l9.029064 1.8310547E-4l0 0c0.99736786 0 1.8058968 0.808527 1.8058968 1.8058949z" fill-rule="evenodd"/><path stroke="#85989a" stroke-width="1.0" stroke-linejoin="round" stroke-linecap="butt" d="m52.801586 28.064978l0 18.498404c0 0.4789505 -0.19026566 0.9382858 -0.5289345 1.2769585c-0.33867264 0.33866882 -0.79800797 0.5289345 -1.2769623 0.5289345l-9.029247 0c-1.02996826E-4 0 -1.8692017E-4 -8.392334E-5 -1.8692017E-4 -1.8692017E-4l1.8692017E-4 -22.110004l0 0c0 -1.0108948E-4 8.010864E-5 -1.8310547E-4 1.8310547E-4 -1.8310547E-4l9.029064 1.8310547E-4l0 0c0.99736786 0 1.8058968 0.808527 1.8058968 1.8058949z" fill-rule="evenodd"/></g></svg>