<svg version="1.1" viewBox="0.0 0.0 695.0393700787401 695.0393700787401" fill="none" stroke="none" stroke-linecap="square" stroke-miterlimit="10" xmlns:xlink="http://www.w3.org/1999/xlink" xmlns="http://www.w3.org/2000/svg"><clipPath id="p.0"><path d="m0 0l695.03937 0l0 695.03937l-695.03937 0l0 -695.03937z" clip-rule="nonzero"/></clipPath><g clip-path="url(#p.0)"><path fill="#000000" fill-opacity="0.0" d="m0 0l695.03937 0l0 695.03937l-695.03937 0z" fill-rule="evenodd"/><path fill="#627678" d="m-0.007874016 115.80315l0 0c0 -63.978054 51.864464 -115.837814 115.84252 -115.832016l463.37006 0.04199475l0 0c30.723389 0.0027844254 60.188354 12.210257 81.913025 33.936913c21.724731 21.726654 33.929504 51.192757 33.929504 81.91611l0 463.37006c0 63.97809 -51.86444 115.83783 -115.84253 115.83203l-463.37006 -0.041992188c-63.978058 -0.00579834 -115.84252 -51.87494 -115.84252 -115.85303z" fill-rule="evenodd"/><path fill="#ffffff" d="m30.716536 136.31758l0 0c0 -58.321846 47.279198 -105.60104 105.60104 -105.60104l422.40424 0l0 0c28.007141 0 54.867188 11.125792 74.6712 30.92983c19.804016 19.804043 30.92981 46.66408 30.92981 74.67122l0 422.40424c0 58.32184 -47.279175 105.60101 -105.60101 105.60101l-422.40424 0c-58.321846 0 -105.60104 -47.279175 -105.60104 -105.60101z" fill-rule="evenodd"/><path fill="#627678" d="m283.51968 27.514435l0 0c35.346222 -35.343323 92.65143 -35.340973 127.99475 0.005250931l256.01053 256.0315l0 0c16.972412 16.973846 26.506897 39.99478 26.50592 63.998474c-9.765625E-4 24.003662 -9.5373535 47.023804 -26.51117 63.996277l-256.00003 255.97903c-35.346222 35.343323 -92.65143 35.340942 -127.99475 -0.0052490234l-256.0105 -256.03152l0 0c-35.343327 -35.346222 -35.340977 -92.65143 0.0052490234 -127.99475z" fill-rule="evenodd"/><path stroke="#627678" stroke-width="1.0" stroke-linejoin="round" stroke-linecap="butt" d="m283.51968 27.514435l0 0c35.346222 -35.343323 92.65143 -35.340973 127.99475 0.005250931l256.01053 256.0315l0 0c16.972412 16.973846 26.506897 39.99478 26.50592 63.998474c-9.765625E-4 24.003662 -9.5373535 47.023804 -26.51117 63.996277l-256.00003 255.97903c-35.346222 35.343323 -92.65143 35.340942 -127.99475 -0.0052490234l-256.0105 -256.03152l0 0c-35.343327 -35.346222 -35.340977 -92.65143 0.0052490234 -127.99475z" fill-rule="evenodd"/><path fill="#ffffff" d="m293.2152 75.997375l0 0c29.991547 -29.991528 78.6174 -29.991528 108.60895 0l217.21783 217.21783l0 0c14.402466 14.402466 22.493652 33.93634 22.493652 54.304474c0 20.368134 -8.091187 39.90204 -22.493652 54.304474l-217.21783 217.21783c-29.991547 29.991516 -78.6174 29.991516 -108.60895 0l-217.21783 -217.21783c-29.991528 -29.991547 -29.991528 -78.6174 0 -108.60895z" fill-rule="evenodd"/><path fill="#627678" d="m327.59814 188.53027l0 0c4.5112305 -10.844696 16.967346 -15.997467 27.821533 -11.509033l0 0l0 0c5.2123413 2.155426 9.350616 6.2913513 11.504456 11.497955c2.153839 5.2065887 2.1467896 11.057343 -0.019592285 16.265152l-125.51242 301.72308c-4.5112305 10.844727 -16.967361 15.997498 -27.821518 11.509033l0 0l0 0c-10.8541565 -4.4884644 -15.996109 -16.918396 -11.484879 -27.763092z" fill-rule="evenodd"/><path fill="#627678" d="m367.44025 188.53027l0 0c-4.511261 -10.844696 -16.967377 -15.997467 -27.821533 -11.509033l0 0l0 0c-5.2123413 2.155426 -9.350616 6.2913513 -11.504456 11.497955c-2.153839 5.2065887 -2.1467896 11.057343 0.019592285 16.265152l125.51242 301.72308c4.5112305 10.844727 16.967346 15.997498 27.821503 11.509033l0 0l0 0c10.8541565 -4.4884644 15.996124 -16.918396 11.484894 -27.763092z" fill-rule="evenodd"/><path fill="#627678" d="m419.99854 407.16556l0 0c11.714233 0 21.21048 -9.496246 21.21048 -21.21045l0 0l0 0c0 -5.625366 -2.2346802 -11.020325 -6.2124023 -14.998077c-3.9777527 -3.9777222 -9.372711 -6.2124023 -14.998077 -6.2124023l-139.56305 0c-11.714233 0 -21.21048 9.496246 -21.21048 21.21048l0 0l0 0c0 11.714203 9.496246 21.21045 21.21048 21.21045z" fill-rule="evenodd"/><path fill="#627678" d="m399.42792 201.76205l30.241882 -4.0064545l12.986359 -28.86058l12.986389 28.86058l30.241882 4.0064545l-22.215881 21.843277l5.7041626 31.3367l-26.716553 -15.360687l-26.716522 15.360687l5.704132 -31.3367z" fill-rule="evenodd"/><path stroke="#627678" stroke-width="8.0" stroke-linejoin="round" stroke-linecap="butt" d="m399.42792 201.76205l30.241882 -4.0064545l12.986359 -28.86058l12.986389 28.86058l30.241882 4.0064545l-22.215881 21.843277l5.7041626 31.3367l-26.716553 -15.360687l-26.716522 15.360687l5.704132 -31.3367z" fill-rule="evenodd"/></g></svg>