<svg version="1.1" viewBox="0.0 0.0 695.0393700787401 695.0393700787401" fill="none" stroke="none" stroke-linecap="square" stroke-miterlimit="10" xmlns:xlink="http://www.w3.org/1999/xlink" xmlns="http://www.w3.org/2000/svg"><clipPath id="p.0"><path d="m0 0l695.03937 0l0 695.03937l-695.03937 0l0 -695.03937z" clip-rule="nonzero"/></clipPath><g clip-path="url(#p.0)"><path fill="#000000" fill-opacity="0.0" d="m0 0l695.03937 0l0 695.03937l-695.03937 0z" fill-rule="evenodd"/><path fill="#627678" d="m-0.007874016 115.80315l0 0c0 -63.978054 51.864464 -115.837814 115.84252 -115.832016l463.37006 0.04199475l0 0c30.723389 0.0027844254 60.188354 12.210257 81.913025 33.936913c21.724731 21.726654 33.929504 51.192757 33.929504 81.91611l0 463.37006c0 63.97809 -51.86444 115.83783 -115.84253 115.83203l-463.37006 -0.041992188c-63.978058 -0.00579834 -115.84252 -51.87494 -115.84252 -115.85303z" fill-rule="evenodd"/><path fill="#ffffff" d="m30.716536 136.31758l0 0c0 -58.321846 47.279198 -105.60104 105.60104 -105.60104l422.40424 0l0 0c28.007141 0 54.867188 11.125792 74.6712 30.92983c19.804016 19.804043 30.92981 46.66408 30.92981 74.67122l0 422.40424c0 58.32184 -47.279175 105.60101 -105.60101 105.60101l-422.40424 0c-58.321846 0 -105.60104 -47.279175 -105.60104 -105.60101z" fill-rule="evenodd"/><path fill="#627678" d="m283.51968 27.514435l0 0c35.346222 -35.343323 92.65143 -35.340973 127.99475 0.005250931l256.01053 256.0315l0 0c16.972412 16.973846 26.506897 39.99478 26.50592 63.998474c-9.765625E-4 24.003662 -9.5373535 47.023804 -26.51117 63.996277l-256.00003 255.97903c-35.346222 35.343323 -92.65143 35.340942 -127.99475 -0.0052490234l-256.0105 -256.03152l0 0c-35.343327 -35.346222 -35.340977 -92.65143 0.0052490234 -127.99475z" fill-rule="evenodd"/><path stroke="#627678" stroke-width="1.0" stroke-linejoin="round" stroke-linecap="butt" d="m283.51968 27.514435l0 0c35.346222 -35.343323 92.65143 -35.340973 127.99475 0.005250931l256.01053 256.0315l0 0c16.972412 16.973846 26.506897 39.99478 26.50592 63.998474c-9.765625E-4 24.003662 -9.5373535 47.023804 -26.51117 63.996277l-256.00003 255.97903c-35.346222 35.343323 -92.65143 35.340942 -127.99475 -0.0052490234l-256.0105 -256.03152l0 0c-35.343327 -35.346222 -35.340977 -92.65143 0.0052490234 -127.99475z" fill-rule="evenodd"/><path fill="#ffffff" d="m293.2152 75.997375l0 0c29.991547 -29.991528 78.6174 -29.991528 108.60895 0l217.21783 217.21783l0 0c14.402466 14.402466 22.493652 33.93634 22.493652 54.304474c0 20.368134 -8.091187 39.90204 -22.493652 54.304474l-217.21783 217.21783c-29.991547 29.991516 -78.6174 29.991516 -108.60895 0l-217.21783 -217.21783c-29.991528 -29.991547 -29.991528 -78.6174 0 -108.60895z" fill-rule="evenodd"/><path fill="#627678" d="m209.39224 221.61678l0 0c0 -13.254837 10.745163 -24.0 24.0 -24.0l0 0l0 0c6.3651886 0 12.469681 2.5285645 16.97055 7.029434c4.500885 4.500885 7.0294495 10.605377 7.0294495 16.970566l0 258.375c0 13.254852 -10.745178 24.0 -24.0 24.0l0 0l0 0c-13.254837 0 -24.0 -10.745148 -24.0 -24.0z" fill-rule="evenodd"/><path fill="#627678" d="m256.19095 211.37807l0 0c-6.340042 -11.2282715 -21.174286 -16.421356 -33.13321 -11.599075l0 0l0 0c-5.742874 2.3157501 -10.041077 6.678604 -11.949051 12.128815c-1.9079742 5.4501953 -1.2694244 11.541275 1.775177 16.933289l111.78084 197.96475c6.340027 11.2282715 21.174286 16.421356 33.13321 11.59906l0 0l0 0c11.958923 -4.8222656 16.513916 -17.833832 10.173859 -29.062103z" fill-rule="evenodd"/><path fill="#627678" d="m485.64713 221.61678l0 0c0 -13.254837 -10.745148 -24.0 -24.0 -24.0l0 0l0 0c-6.3651733 0 -12.469696 2.5285645 -16.97055 7.029434c-4.500885 4.500885 -7.0294495 10.605377 -7.0294495 16.970566l0 258.375c0 13.254852 10.745178 24.0 24.0 24.0l0 0l0 0c13.254852 0 24.0 -10.745148 24.0 -24.0z" fill-rule="evenodd"/><path fill="#627678" d="m438.84842 211.37807l0 0c6.3400574 -11.2282715 21.174286 -16.421356 33.13321 -11.599075l0 0l0 0c5.7428894 2.3157501 10.041077 6.678604 11.949036 12.128815c1.9079895 5.4501953 1.2694397 11.541275 -1.7751465 16.933289l-111.78085 197.96475c-6.340027 11.2282715 -21.174286 16.421356 -33.13321 11.59906l0 0l0 0c-11.958893 -4.8222656 -16.513916 -17.833832 -10.173859 -29.062103z" fill-rule="evenodd"/></g></svg>